<svg width="406.624" height="184.463" xmlns="http://www.w3.org/2000/svg" xmlns:xlink="http://www.w3.org/1999/xlink" id="svg1" xml:space="preserve" overflow="hidden"><defs id="defs1"></defs><g id="g1" transform="matrix(1.06667 0 0 1.06667 35.5458 -145.877)"><g id="g964" transform="translate(500.612 -226.97)"><g id="g811" transform="translate(-119.841 214.256)"><text id="text795" x="-415.114" y="236.619"><tspan font-family="Arial" font-weight="700" font-size="14">E</tspan></text><text id="text796" x="-48.5062" y="221.296"><tspan font-family="Arial" font-weight="700" font-size="14">C1</tspan></text><text id="text797" transform="matrix(0.642788 0.766044 -0.766044 0.642788 0 0)" x="97.6095" y="210.732"><tspan font-family="Arial" font-weight="700" font-size="14">C3</tspan></text><text id="text798" x="-149.04" y="248.932"><tspan font-family="Arial" font-weight="700" font-size="14">C5</tspan></text><text id="text799" x="-233.816" y="193.546"><tspan font-family="Arial" font-weight="700" font-size="14">C7</tspan></text><text id="text800" transform="matrix(0.707107 -0.707107 0.707107 0.707107 0 0)" x="-321.99" y="56.6381"><tspan font-family="Arial" font-weight="700" font-size="14">C9</tspan></text><text id="text801" x="-278.749" y="249.525"><tspan font-family="Arial" font-weight="700" font-size="14">C10</tspan></text><text id="text803" transform="matrix(0.707107 -0.707107 0.707107 0.707107 0 0)" x="-379.926" y="-64.3327"><tspan font-family="Arial" font-weight="700" font-size="14">C11</tspan><tspan font-family="Arial" font-weight="700" font-size="14"></tspan></text><g id="g807"><text id="text804" x="-110.031" y="159.666"><tspan font-family="Arial" font-weight="700" font-size="14">C2</tspan></text><text id="text805" x="-199.134" y="159.666"><tspan font-family="Arial" font-weight="700" font-size="14">C6</tspan></text><text id="text807" x="-331.585" y="159.666"><tspan font-family="Arial" font-weight="700" font-size="14">C12</tspan><tspan font-family="Arial" font-weight="700" font-size="14"></tspan></text></g><g id="g810"><text id="text808" x="-113.1" y="322.234"><tspan font-family="Arial" font-weight="700" font-size="14">C4</tspan></text><text id="text809" x="-208.325" y="322.231"><tspan font-family="Arial" font-weight="700" font-size="14">C8</tspan></text><text id="text810" x="-367.824" y="322.234"><tspan font-family="Arial" font-weight="700" font-size="14">C13</tspan></text></g></g><path d="M-527.284 432.829-503.715 432.829" id="path811" stroke="#FF0000" stroke-width="1.875" stroke-linecap="round" stroke-linejoin="round" fill="none"/><path d="M-521.392 436.185-509.608 436.185" id="path812" stroke="#FF0000" stroke-width="1.875" stroke-linecap="round" stroke-linejoin="round" fill="none"/><path d="M-176.145 465.453-176.145 504.249" id="path813" stroke="#000000" stroke-width="1.875" stroke-linecap="round" stroke-linejoin="round" fill="none"/><path d="M-176.145 389.625-176.145 421.604" id="path814" stroke="#000000" stroke-width="1.875" stroke-linecap="round" stroke-linejoin="round" fill="none"/><path d="M-337.445 390.59-369.852 390.59" id="path815" stroke="#FF0000" stroke-width="1.875" stroke-linecap="round" stroke-linejoin="round" fill="none"/><path d="M-274.103 390.59-300.817 390.59" id="path816" stroke="#FF0000" stroke-width="1.875" stroke-linecap="round" stroke-linejoin="round" fill="none"/><path d="M-455.804 390.59-514.676 390.59" id="path817" stroke="#FF0000" stroke-width="1.875" stroke-linecap="round" stroke-linejoin="round" fill="none"/><path d="M-362.62 390.59-415.964 390.59" id="path818" stroke="#FF0000" stroke-width="1.875" stroke-linecap="round" stroke-linejoin="round" fill="none"/><path d="M-515.5 432.829-515.5 390.507" id="path819" stroke="#FF0000" stroke-width="1.875" stroke-linecap="round" stroke-linejoin="round" fill="none"/><path d="M-515.5 436.86-515.5 503.368" id="path820" stroke="#FF0000" stroke-width="1.875" stroke-linecap="round" stroke-linejoin="round" fill="none"/><path d="M-177.618 503.368-195.294 482.206" id="path821" stroke="#FF0000" stroke-width="1.875" stroke-linecap="round" stroke-linejoin="round" fill="none"/><path d="M-271.894 466.335-271.894 505.131" id="path822" stroke="#000000" stroke-width="1.875" stroke-linecap="round" stroke-linejoin="round" fill="none"/><path d="M-271.894 390.507-271.894 422.486" id="path823" stroke="#000000" stroke-width="1.875" stroke-linecap="round" stroke-linejoin="round" fill="none"/><path d="M-305.038 504.919-272.63 504.919" id="path824" stroke="#FF0000" stroke-width="1.875" stroke-linecap="round" stroke-linejoin="round" fill="none"/><path d="M-368.379 504.919-341.666 504.919" id="path825" stroke="#FF0000" stroke-width="1.875" stroke-linecap="round" stroke-linejoin="round" fill="none"/><path d="M-240.223 390.59-272.63 390.59" id="path826" stroke="#000000" stroke-width="1.875" stroke-linecap="round" stroke-linejoin="round" fill="none"/><path d="M-176.881 390.59-203.594 390.59" id="path827" stroke="#000000" stroke-width="1.875" stroke-linecap="round" stroke-linejoin="round" fill="none"/><path d="M-442.5 504.919-363.212 504.919" id="path828" stroke="#FF0000" stroke-width="1.875" stroke-linecap="round" stroke-linejoin="round" fill="none"/><path d="M-239.486 504.919-271.894 504.919" id="path829" stroke="#FF0000" stroke-width="1.875" stroke-linecap="round" stroke-linejoin="round" fill="none"/><path d="M-176.145 504.919-202.858 504.919" id="path830" stroke="#FF0000" stroke-width="1.875" stroke-linecap="round" stroke-linejoin="round" fill="none"/><path d="M-218.266 454.773-195.351 482.206" id="path831" stroke="#FF0000" stroke-width="1.875" stroke-linecap="round" stroke-linejoin="round" fill="none"/><path d="M-263.055 401.154-244.166 423.767" id="path832" stroke="#000000" stroke-width="1.875" stroke-linecap="round" stroke-linejoin="round" fill="none"/><path d="M-254.217 411.668-271.894 390.507" id="path833" stroke="#FF0000" stroke-width="1.875" stroke-linecap="round" stroke-linejoin="round" fill="#FF0000"/><path d="M-340.937 474.695-363.833 504.079" id="path834" stroke="#000000" stroke-width="1.875" stroke-linecap="round" stroke-linejoin="round" fill="none"/><path d="M-295.542 416.439-314.416 440.66" id="path835" stroke="#000000" stroke-width="1.875" stroke-linecap="round" stroke-linejoin="round" fill="none"/><path d="M-366.17 466.335-366.17 505.131" id="path836" stroke="#000000" stroke-width="1.875" stroke-linecap="round" stroke-linejoin="round" fill="none"/><path d="M-366.17 390.507-366.17 422.486" id="path837" stroke="#000000" stroke-width="1.875" stroke-linecap="round" stroke-linejoin="round" fill="none"/><path d="M-420.538 456.365-443.453 483.798" id="path838" stroke="#000000" stroke-width="1.875" stroke-linecap="round" stroke-linejoin="round" fill="none"/><path d="M-375.748 402.747-394.637 425.359" id="path839" stroke="#000000" stroke-width="1.875" stroke-linecap="round" stroke-linejoin="round" fill="none"/><path d="M-384.586 413.26-366.91 392.099" id="path840" stroke="#000000" stroke-width="1.875" stroke-linecap="round" stroke-linejoin="round" fill="none"/><path d="M-272.134 415.82-310.143 415.82" id="path841" stroke="#000000" stroke-width="1.875" stroke-linecap="round" stroke-linejoin="round" fill="none"/><path d="M-337.445 390.59-369.852 390.59" id="path842" stroke="#FF0000" stroke-width="1.875" stroke-linecap="round" stroke-linejoin="round" fill="none"/><path d="M-345.723 415.82-366.928 415.82" id="path843" stroke="#000000" stroke-width="1.875" stroke-linecap="round" stroke-linejoin="round" fill="none"/><path d="M-443.264 505.087-443.264 483.079" id="path844" stroke="#FF0000" stroke-width="1.875" stroke-linecap="round" stroke-linejoin="round" fill="none"/><path d="M-494.108 504.919-515.564 504.919" id="path845" stroke="#FF0000" stroke-width="1.875" stroke-linecap="round" stroke-linejoin="round" fill="none"/><path d="M-457.5 504.919-443.837 504.919" id="path846" stroke="#FF0000" stroke-width="1.875" stroke-linecap="round" stroke-linejoin="round" fill="none"/><g id="g855" stroke="#FF0000" stroke-width="1.875" transform="translate(-284.968 -53.1445)"><g id="g850" transform="matrix(1 0 0 1 0 1.59801)"><g id="g848"><g id="g847"><path d="M-116.1 442.136-147.089 442.136" id="path847" stroke-linecap="round" stroke-linejoin="round" fill="none"/></g></g><g id="g849" transform="translate(345.6 1658.78)"><path d="M-499.02-1229.02-499.02-1204.27" id="path848" stroke-linecap="round" stroke-linejoin="round" fill="none"/><path d="M-493.395-1229.02-493.395-1204.27" id="path849" stroke-linecap="round" stroke-linejoin="round" fill="none"/></g></g><g id="g854" transform="matrix(-1 0 0 1 -301.34 1.59801)"><g id="g852"><g id="g851"><path d="M-116.1 442.136-147.089 442.136" id="path850" stroke-linecap="round" stroke-linejoin="round" fill="none"/></g></g><g id="g853" transform="translate(345.6 1658.78)"><path d="M-499.02-1229.02-499.02-1204.27" id="path852" stroke-linecap="round" stroke-linejoin="round" fill="none"/><path d="M-493.395-1229.02-493.395-1204.27" id="path853" stroke-linecap="round" stroke-linejoin="round" fill="none"/></g></g></g><g id="g864" stroke="#FF0000" stroke-width="1.875" transform="translate(-161.218 -53.1445)"><g id="g859" transform="matrix(1 0 0 1 0 1.59801)"><g id="g857"><g id="g856"><path d="M-116.1 442.136-147.089 442.136" id="path855" stroke-linecap="round" stroke-linejoin="round" fill="none"/></g></g><g id="g858" transform="translate(345.6 1658.78)"><path d="M-499.02-1229.02-499.02-1204.27" id="path857" stroke-linecap="round" stroke-linejoin="round" fill="none"/><path d="M-493.395-1229.02-493.395-1204.27" id="path858" stroke-linecap="round" stroke-linejoin="round" fill="none"/></g></g><g id="g863" transform="matrix(-1 0 0 1 -301.34 1.59801)"><g id="g861"><g id="g860"><path d="M-116.1 442.136-147.089 442.136" id="path859" stroke-linecap="round" stroke-linejoin="round" fill="none"/></g></g><g id="g862" transform="translate(345.6 1658.78)"><path d="M-499.02-1229.02-499.02-1204.27" id="path861" stroke-linecap="round" stroke-linejoin="round" fill="none"/><path d="M-493.395-1229.02-493.395-1204.27" id="path862" stroke-linecap="round" stroke-linejoin="round" fill="none"/></g></g></g><g id="g873" stroke="#000000" stroke-width="1.875" transform="translate(-71.2185 -53.1445)"><g id="g868" transform="matrix(1 0 0 1 0 1.59801)"><g id="g866"><g id="g865"><path d="M-116.1 442.136-147.089 442.136" id="path864" stroke-linecap="round" stroke-linejoin="round" fill="none"/></g></g><g id="g867" transform="translate(345.6 1658.78)"><path d="M-499.02-1229.02-499.02-1204.27" id="path866" stroke-linecap="round" stroke-linejoin="round" fill="none"/><path d="M-493.395-1229.02-493.395-1204.27" id="path867" stroke-linecap="round" stroke-linejoin="round" fill="none"/></g></g><g id="g872" transform="matrix(-1 0 0 1 -301.34 1.59801)"><g id="g870"><g id="g869"><path d="M-116.1 442.136-147.089 442.136" id="path868" stroke-linecap="round" stroke-linejoin="round" fill="none"/></g></g><g id="g871" transform="translate(345.6 1658.78)"><path d="M-499.02-1229.02-499.02-1204.27" id="path870" stroke-linecap="round" stroke-linejoin="round" fill="none"/><path d="M-493.395-1229.02-493.395-1204.27" id="path871" stroke-linecap="round" stroke-linejoin="round" fill="none"/></g></g></g><g id="g877" stroke="#FF0000" stroke-width="1.875" transform="translate(-323.84 62.7828)"><g id="g875"><g id="g874"><path d="M-116.1 442.136-147.089 442.136" id="path873" stroke-linecap="round" stroke-linejoin="round" fill="none"/></g></g><g id="g876" transform="translate(345.6 1658.78)"><path d="M-499.02-1229.02-499.02-1204.27" id="path875" stroke-linecap="round" stroke-linejoin="round" fill="none"/><path d="M-493.395-1229.02-493.395-1204.27" id="path876" stroke-linecap="round" stroke-linejoin="round" fill="none"/></g></g><g id="g881" stroke="#FF0000" stroke-width="1.875" transform="matrix(-1 0 0 1 -625.18 62.7828)"><g id="g879"><g id="g878"><path d="M-116.1 442.136-147.089 442.136" id="path877" stroke-linecap="round" stroke-linejoin="round" fill="none"/></g></g><g id="g880" transform="translate(345.6 1658.78)"><path d="M-499.02-1229.02-499.02-1204.27" id="path879" stroke-linecap="round" stroke-linejoin="round" fill="none"/><path d="M-493.395-1229.02-493.395-1204.27" id="path880" stroke-linecap="round" stroke-linejoin="round" fill="none"/></g></g><g id="g890" stroke="#FF0000" stroke-width="1.875" transform="translate(-119.841 214.256)"><g id="g885" transform="translate(-46.4998 -151.473)"><g id="g883"><g id="g882"><path d="M-116.1 442.136-147.089 442.136" id="path881" stroke-linecap="round" stroke-linejoin="round" fill="none"/></g></g><g id="g884" transform="translate(345.6 1658.78)"><path d="M-499.02-1229.02-499.02-1204.27" id="path883" stroke-linecap="round" stroke-linejoin="round" fill="none"/><path d="M-493.395-1229.02-493.395-1204.27" id="path884" stroke-linecap="round" stroke-linejoin="round" fill="none"/></g></g><g id="g889" transform="matrix(-1 0 0 1 -347.84 -151.473)"><g id="g887"><g id="g886"><path d="M-116.1 442.136-147.089 442.136" id="path885" stroke-linecap="round" stroke-linejoin="round" fill="none"/></g></g><g id="g888" transform="translate(345.6 1658.78)"><path d="M-499.02-1229.02-499.02-1204.27" id="path887" stroke-linecap="round" stroke-linejoin="round" fill="none"/><path d="M-493.395-1229.02-493.395-1204.27" id="path888" stroke-linecap="round" stroke-linejoin="round" fill="none"/></g></g></g><g id="g894" stroke="#FF0000" stroke-width="1.875" transform="translate(-70.7154 62.7828)"><g id="g892"><g id="g891"><path d="M-116.1 442.136-147.089 442.136" id="path890" stroke-linecap="round" stroke-linejoin="round" fill="none"/></g></g><g id="g893" transform="translate(345.6 1658.78)"><path d="M-499.02-1229.02-499.02-1204.27" id="path892" stroke-linecap="round" stroke-linejoin="round" fill="none"/><path d="M-493.395-1229.02-493.395-1204.27" id="path893" stroke-linecap="round" stroke-linejoin="round" fill="none"/></g></g><g id="g898" stroke="#FF0000" stroke-width="1.875" transform="matrix(-1 0 0 1 -372.055 62.7828)"><g id="g896"><g id="g895"><path d="M-116.1 442.136-147.089 442.136" id="path894" stroke-linecap="round" stroke-linejoin="round" fill="none"/></g></g><g id="g897" transform="translate(345.6 1658.78)"><path d="M-499.02-1229.02-499.02-1204.27" id="path896" stroke-linecap="round" stroke-linejoin="round" fill="none"/><path d="M-493.395-1229.02-493.395-1204.27" id="path897" stroke-linecap="round" stroke-linejoin="round" fill="none"/></g></g><g id="g907" stroke="#000000" stroke-width="1.875" transform="translate(-131.907 125.129)"><g id="g902" transform="translate(-46.4998 -151.473)"><g id="g900"><g id="g899"><path d="M-116.1 442.136-147.089 442.136" id="path898" stroke-linecap="round" stroke-linejoin="round" fill="none"/></g></g><g id="g901" transform="translate(345.6 1658.78)"><path d="M-499.02-1229.02-499.02-1204.27" id="path900" stroke-linecap="round" stroke-linejoin="round" fill="none"/><path d="M-493.395-1229.02-493.395-1204.27" id="path901" stroke-linecap="round" stroke-linejoin="round" fill="none"/></g></g><g id="g906" transform="matrix(-1 0 0 1 -347.84 -151.473)"><g id="g904"><g id="g903"><path d="M-116.1 442.136-147.089 442.136" id="path902" stroke-linecap="round" stroke-linejoin="round" fill="none"/></g></g><g id="g905" transform="translate(345.6 1658.78)"><path d="M-499.02-1229.02-499.02-1204.27" id="path904" stroke-linecap="round" stroke-linejoin="round" fill="none"/><path d="M-493.395-1229.02-493.395-1204.27" id="path905" stroke-linecap="round" stroke-linejoin="round" fill="none"/></g></g></g><g id="g916" stroke="#000000" stroke-width="1.875" transform="matrix(6.12323e-17 -1 1 6.12323e-17 -466.808 249.208)"><g id="g911" transform="translate(-46.4998 -151.473)"><g id="g909"><g id="g908"><path d="M-116.1 442.136-147.089 442.136" id="path907" stroke-linecap="round" stroke-linejoin="round" fill="none"/></g></g><g id="g910" transform="translate(345.6 1658.78)"><path d="M-499.02-1229.02-499.02-1204.27" id="path909" stroke-linecap="round" stroke-linejoin="round" fill="none"/><path d="M-493.395-1229.02-493.395-1204.27" id="path910" stroke-linecap="round" stroke-linejoin="round" fill="none"/></g></g><g id="g915" transform="matrix(-1 0 0 1 -347.84 -151.473)"><g id="g913"><g id="g912"><path d="M-116.1 442.136-147.089 442.136" id="path911" stroke-linecap="round" stroke-linejoin="round" fill="none"/></g></g><g id="g914" transform="translate(345.6 1658.78)"><path d="M-499.02-1229.02-499.02-1204.27" id="path913" stroke-linecap="round" stroke-linejoin="round" fill="none"/><path d="M-493.395-1229.02-493.395-1204.27" id="path914" stroke-linecap="round" stroke-linejoin="round" fill="none"/></g></g></g><g id="g925" stroke="#000000" stroke-width="1.875" transform="matrix(6.12323e-17 -1 1 6.12323e-17 -562.226 248.4)"><g id="g920" transform="translate(-46.4998 -151.473)"><g id="g918"><g id="g917"><path d="M-116.1 442.136-147.089 442.136" id="path916" stroke-linecap="round" stroke-linejoin="round" fill="none"/></g></g><g id="g919" transform="translate(345.6 1658.78)"><path d="M-499.02-1229.02-499.02-1204.27" id="path918" stroke-linecap="round" stroke-linejoin="round" fill="none"/><path d="M-493.395-1229.02-493.395-1204.27" id="path919" stroke-linecap="round" stroke-linejoin="round" fill="none"/></g></g><g id="g924" transform="matrix(-1 0 0 1 -347.84 -151.473)"><g id="g922"><g id="g921"><path d="M-116.1 442.136-147.089 442.136" id="path920" stroke-linecap="round" stroke-linejoin="round" fill="none"/></g></g><g id="g923" transform="translate(345.6 1658.78)"><path d="M-499.02-1229.02-499.02-1204.27" id="path922" stroke-linecap="round" stroke-linejoin="round" fill="none"/><path d="M-493.395-1229.02-493.395-1204.27" id="path923" stroke-linecap="round" stroke-linejoin="round" fill="none"/></g></g></g><g id="g934" stroke="#000000" stroke-width="1.875" transform="matrix(6.12323e-17 -1 1 6.12323e-17 -656.732 248.4)"><g id="g929" transform="translate(-46.4998 -151.473)"><g id="g927"><g id="g926"><path d="M-116.1 442.136-147.089 442.136" id="path925" stroke-linecap="round" stroke-linejoin="round" fill="none"/></g></g><g id="g928" transform="translate(345.6 1658.78)"><path d="M-499.02-1229.02-499.02-1204.27" id="path927" stroke-linecap="round" stroke-linejoin="round" fill="none"/><path d="M-493.395-1229.02-493.395-1204.27" id="path928" stroke-linecap="round" stroke-linejoin="round" fill="none"/></g></g><g id="g933" transform="matrix(-1 0 0 1 -347.84 -151.473)"><g id="g931"><g id="g930"><path d="M-116.1 442.136-147.089 442.136" id="path929" stroke-linecap="round" stroke-linejoin="round" fill="none"/></g></g><g id="g932" transform="translate(345.6 1658.78)"><path d="M-499.02-1229.02-499.02-1204.27" id="path931" stroke-linecap="round" stroke-linejoin="round" fill="none"/><path d="M-493.395-1229.02-493.395-1204.27" id="path932" stroke-linecap="round" stroke-linejoin="round" fill="none"/></g></g></g><g id="g943" stroke="#FF0000" stroke-width="1.875" fill="#FF0000" transform="matrix(-0.639234 -0.769013 0.769013 -0.639234 -579.098 474.948)"><g id="g938" transform="translate(-46.4998 -151.473)"><g id="g936"><g id="g935"><path d="M-116.1 442.136-147.089 442.136" id="path934" stroke-linecap="round" stroke-linejoin="round"/></g></g><g id="g937" transform="translate(345.6 1658.78)"><path d="M-499.02-1229.02-499.02-1204.27" id="path936" stroke-linecap="round" stroke-linejoin="round"/><path d="M-493.395-1229.02-493.395-1204.27" id="path937" stroke-linecap="round" stroke-linejoin="round"/></g></g><g id="g942" transform="matrix(-1 0 0 1 -347.84 -151.473)"><g id="g940"><g id="g939"><path d="M-116.1 442.136-147.089 442.136" id="path938" stroke-linecap="round" stroke-linejoin="round"/></g></g><g id="g941" transform="translate(345.6 1658.78)"><path d="M-499.02-1229.02-499.02-1204.27" id="path940" stroke-linecap="round" stroke-linejoin="round"/><path d="M-493.395-1229.02-493.395-1204.27" id="path941" stroke-linecap="round" stroke-linejoin="round"/></g></g></g><g id="g952" stroke="#000000" stroke-width="1.875" transform="matrix(0.618884 -0.785482 -0.785482 -0.618884 23.2684 481.663)"><g id="g947" transform="translate(-46.4998 -151.473)"><g id="g945"><g id="g944"><path d="M-116.1 442.136-147.089 442.136" id="path943" stroke-linecap="round" stroke-linejoin="round" fill="none"/></g></g><g id="g946" transform="translate(345.6 1658.78)"><path d="M-499.02-1229.02-499.02-1204.27" id="path945" stroke-linecap="round" stroke-linejoin="round" fill="none"/><path d="M-493.395-1229.02-493.395-1204.27" id="path946" stroke-linecap="round" stroke-linejoin="round" fill="none"/></g></g><g id="g951" transform="matrix(-1 0 0 1 -347.84 -151.473)"><g id="g949"><g id="g948"><path d="M-116.1 442.136-147.089 442.136" id="path947" stroke-linecap="round" stroke-linejoin="round" fill="none"/></g></g><g id="g950" transform="translate(345.6 1658.78)"><path d="M-499.02-1229.02-499.02-1204.27" id="path949" stroke-linecap="round" stroke-linejoin="round" fill="none"/><path d="M-493.395-1229.02-493.395-1204.27" id="path950" stroke-linecap="round" stroke-linejoin="round" fill="none"/></g></g></g><g id="g961" stroke="#000000" stroke-width="1.875" transform="matrix(0.639234 -0.769013 -0.769013 -0.639234 -60.6717 477.973)"><g id="g956" transform="translate(-46.4998 -151.473)"><g id="g954"><g id="g953"><path d="M-116.1 442.136-147.089 442.136" id="path952" stroke-linecap="round" stroke-linejoin="round" fill="none"/></g></g><g id="g955" transform="translate(345.6 1658.78)"><path d="M-499.02-1229.02-499.02-1204.27" id="path954" stroke-linecap="round" stroke-linejoin="round" fill="none"/><path d="M-493.395-1229.02-493.395-1204.27" id="path955" stroke-linecap="round" stroke-linejoin="round" fill="none"/></g></g><g id="g960" transform="matrix(-1 0 0 1 -347.84 -151.473)"><g id="g958"><g id="g957"><path d="M-116.1 442.136-147.089 442.136" id="path956" stroke-linecap="round" stroke-linejoin="round" fill="none"/></g></g><g id="g959" transform="translate(345.6 1658.78)"><path d="M-499.02-1229.02-499.02-1204.27" id="path958" stroke-linecap="round" stroke-linejoin="round" fill="none"/><path d="M-493.395-1229.02-493.395-1204.27" id="path959" stroke-linecap="round" stroke-linejoin="round" fill="none"/></g></g></g></g></g></svg>